<svg width="33" height="26" viewBox="0 0 33 26" fill="none" xmlns="http://www.w3.org/2000/svg">
<path d="M5.61292 15.1533L5.61832 15.1561C5.61102 15.1567 5.60452 15.1509 5.61292 15.1533ZM5.62152 15.1554L5.61832 15.1561L5.62152 15.1599L5.62502 15.1693L5.63252 15.146L5.62502 15.1533L5.62152 15.1554ZM14.6872 6.76631C14.5539 8.15145 13.9415 9.44666 12.9555 10.4286C12.9121 10.4786 12.8746 10.5211 12.8427 10.5586C12.2871 11.109 11.6858 11.6113 11.0453 12.0601L11.0426 12.0635L11.0141 12.0829C10.7731 12.2591 10.5229 12.4225 10.2646 12.5722L9.96192 12.7409C9.46162 12.9811 8.94436 13.1843 8.41432 13.3487L8.37582 13.364C8.13584 13.4453 7.8877 13.5002 7.63582 13.5276C7.4417 13.5602 7.2457 13.5804 7.04902 13.5881C6.50833 13.6312 5.96548 13.6406 5.42362 13.6162C4.3156 13.4582 3.28226 12.9656 2.46182 12.2043C1.95921 11.818 1.52144 11.354 1.16502 10.8297C0.874021 10.4398 0.628561 10.0179 0.433417 9.57221C0.353073 9.38469 0.284866 9.19219 0.229218 8.99591C0.0941493 8.565 0.0223671 8.11675 0.0161175 7.66521C-0.0492819 7.00461 0.0853022 6.3396 0.402417 5.75641C0.590632 5.42049 0.801555 5.09781 1.03372 4.79061C1.02202 4.78881 1.00712 4.78351 0.995617 4.78191C1.98635 3.3989 3.25564 2.23862 4.72182 1.37571C6.18406 0.453804 7.88249 -0.0237886 9.61092 0.000911858C10.3876 0.0164119 11.7209 0.395711 13.4409 2.41921C14.3366 3.6853 14.776 5.21796 14.6872 6.76631ZM4.59792 9.88401C4.43774 9.47452 4.23173 9.08447 3.98382 8.72131C3.73593 8.3637 3.44655 8.03672 3.12172 7.74721C2.64412 7.37581 1.95642 7.18321 1.80642 7.67891C1.75067 8.06399 1.77408 8.45639 1.87522 8.83211C1.97635 9.20783 2.15309 9.55896 2.39462 9.86401C2.59628 10.2061 2.8659 10.5032 3.18683 10.737C3.50777 10.9708 3.87321 11.1364 4.26062 11.2235C4.73802 11.2622 4.83462 10.4793 4.59792 9.88401ZM12.1426 3.20931L12.0926 3.14081C11.944 2.93877 11.7214 2.80375 11.4736 2.76525C11.2258 2.72675 10.9727 2.78788 10.7698 2.93531L8.46462 4.62081C8.26258 4.76944 8.12756 4.99198 8.08906 5.23983C8.05055 5.48768 8.11169 5.74069 8.25912 5.94361L8.30912 6.01201C8.45773 6.21407 8.68027 6.34911 8.92813 6.38762C9.17599 6.42612 9.42901 6.36497 9.63192 6.21751L11.9371 4.53221C12.1392 4.38361 12.2743 4.16105 12.3128 3.91316C12.3513 3.66527 12.2901 3.41222 12.1426 3.20931ZM5.26462 23.6175C5.28908 23.9883 5.44881 24.3372 5.71351 24.598C5.9782 24.8587 6.32942 25.0133 6.70052 25.0322H8.32212C8.7289 24.9833 9.10452 24.7897 9.38038 24.4868C9.65623 24.1838 9.81391 23.7918 9.82462 23.3822V14.2677C8.36782 14.819 6.82221 15.0982 5.26462 15.0914C5.26322 15.1242 5.26462 23.2028 5.26462 23.6175ZM26.9109 15.1561C26.9182 15.1567 26.9247 15.1509 26.9163 15.1533L26.9109 15.1561ZM26.9042 15.1533L26.8967 15.146L26.9042 15.1693L26.9077 15.1599L26.9109 15.1561L26.9077 15.1554L26.9042 15.1533ZM32.5131 7.66481C32.5069 8.11635 32.4351 8.5646 32.3 8.99551C32.2444 9.19179 32.1762 9.38428 32.0958 9.57181C31.9008 10.0175 31.6555 10.4394 31.3646 10.8293C31.0082 11.3536 30.5704 11.8176 30.0678 12.2039C29.2474 12.9652 28.214 13.4578 27.106 13.6158C26.5642 13.6402 26.0213 13.6308 25.4806 13.5877C25.2839 13.58 25.0879 13.5598 24.8938 13.5272C24.6419 13.4998 24.3938 13.4449 24.1538 13.3636L24.1153 13.3483C23.5853 13.1839 23.068 12.9807 22.5677 12.7405L22.2646 12.5722C22.0064 12.4227 21.7563 12.2596 21.5153 12.0836L21.4868 12.0642L21.4841 12.0608C20.8436 11.612 20.2423 11.1097 19.6867 10.5593C19.6548 10.5215 19.6173 10.4786 19.5739 10.4293C18.5879 9.44736 17.9755 8.15215 17.8422 6.76701C17.7534 5.21849 18.1929 3.68568 19.0888 2.41951C20.8088 0.396012 22.1418 0.0167113 22.9188 0.00121131C24.6472 -0.0234892 26.3457 0.454104 27.8079 1.37601C29.2741 2.23892 30.5434 3.3992 31.5341 4.78221C31.5226 4.78381 31.5077 4.78911 31.496 4.79091C31.7282 5.09811 31.9391 5.42079 32.1273 5.75671C32.4441 6.33975 32.5785 7.00449 32.5131 7.66481ZM20.5921 4.53221L22.8975 6.21771C23.1004 6.36516 23.3535 6.42632 23.6013 6.38782C23.8492 6.34931 24.0717 6.21427 24.2203 6.01221L24.2703 5.94381C24.4178 5.74085 24.4789 5.48778 24.4404 5.23988C24.4018 4.99198 24.2667 4.76941 24.0646 4.62081L21.7591 2.93531C21.5562 2.78788 21.3032 2.72675 21.0553 2.76525C20.8075 2.80375 20.5849 2.93877 20.4363 3.14081L20.3863 3.20931C20.2388 3.41226 20.1777 3.66533 20.2163 3.91323C20.2548 4.16112 20.39 4.38366 20.5921 4.53221ZM30.7228 7.67911C30.5728 7.18341 29.8851 7.37601 29.4075 7.74741C29.0827 8.03692 28.7933 8.3639 28.5454 8.72151C28.2975 9.08467 28.0915 9.47472 27.9313 9.88421C27.6948 10.4795 27.7913 11.2627 28.2686 11.2242C28.6561 11.137 29.0216 10.9713 29.3425 10.7374C29.6634 10.5034 29.933 10.2062 30.1346 9.86401C30.3761 9.55896 30.5529 9.20783 30.654 8.83211C30.7552 8.45639 30.7786 8.06419 30.7228 7.67911ZM27.2646 15.0914C25.707 15.0982 24.1614 14.819 22.7046 14.2677V23.3822C22.7153 23.7918 22.873 24.1838 23.1489 24.4868C23.4247 24.7897 23.8003 24.9833 24.2071 25.0322H25.8287C26.1922 24.9921 26.5316 24.8307 26.7921 24.574C27.0527 24.3173 27.2191 23.9804 27.2646 23.6175V15.0914Z" fill="#1D1D1F"/>
</svg>
