<svg width="34" height="38" viewBox="0 0 34 38" fill="none" xmlns="http://www.w3.org/2000/svg">
<path d="M28.1071 7.8186C24.9965 5.20376 21.0295 3.83036 16.968 3.9622C12.9503 3.86641 9.03317 5.22476 5.93731 7.7873C7.20323 6.04618 8.86155 4.62782 10.7779 3.64715C12.6942 2.66649 14.8146 2.15111 16.9673 2.1428L16.9997 2.1418L17.032 2.1428C19.1901 2.17383 21.312 2.70206 23.2328 3.68643C25.1536 4.67081 26.8216 6.08483 28.1071 7.8186ZM33.9979 17.2701C33.9956 17.1483 33.9914 17.0288 33.9871 16.9095L31.8631 17.0211C31.8661 17.2966 31.8642 17.5048 31.875 17.6352C31.89 17.8203 31.9306 17.8643 32.0823 17.8552C32.234 17.8461 32.3669 17.8427 32.3669 17.8427C32.3669 17.8427 32.3699 18.5144 32.3699 19.288C32.3519 19.52 32.4227 19.7503 32.568 19.9321C32.5427 19.9182 32.522 19.9061 32.495 19.8914C32.1427 19.7433 31.7519 19.7139 31.3814 19.8076C31.0988 19.894 30.8259 20.0097 30.5673 20.1527C30.6784 20.9064 30.5197 21.6752 30.1193 22.3233C29.3753 23.8359 25.6454 31.8425 23.7962 34.407C23.3918 35.0477 22.8631 35.601 22.2414 36.0341C22.2616 36.2835 22.3002 36.5311 22.3569 36.7748C22.4456 37.0513 22.6069 37.299 22.8239 37.492C23.0409 37.685 23.3056 37.8162 23.5906 37.8721C25.1193 38.1231 26.5415 36.2356 27.087 35.4297C27.6325 34.6238 28.543 33.1648 30.447 29.652C32.0464 26.7012 33.6954 23.0684 33.621 21.7295C33.593 21.2941 33.4647 20.8711 33.246 20.4935C33.1446 20.3402 33.0133 20.2089 32.8601 20.1074C32.8999 20.117 32.9405 20.1225 32.9814 20.1237C33.1346 20.1237 33.602 20.0246 33.602 19.3098C33.602 18.595 33.585 17.7774 33.585 17.7774C33.585 17.7774 33.6174 17.7748 33.8155 17.7655C33.9672 17.7584 34.0002 17.6785 33.9999 17.4603C33.9997 17.4033 33.9997 17.3397 33.9979 17.2701ZM4.09191 9.923C4.3851 9.32174 4.63744 8.7014 4.84721 8.0662C6.33261 5.058 11.0746 1.301 16.9666 1.301L16.9997 1.3L17.0323 1.301C22.9245 1.301 27.6663 5.058 29.1523 8.0662C29.3619 8.70142 29.6141 9.32177 29.9073 9.923C31.0235 11.8321 31.6831 13.9734 31.8347 16.1797L33.9394 16.0691C33.7708 13.4005 32.9449 10.815 31.5352 8.5428C31.2443 8.14151 30.9307 7.75712 30.596 7.3915C29.117 5.13943 27.1056 3.28675 24.7398 1.99749C22.374 0.708222 19.7268 0.0221461 17.0326 0L16.9997 0.000800133L16.9671 0C14.2729 0.0220431 11.6256 0.708073 9.25976 1.99734C6.89391 3.28662 4.88246 5.13935 3.40351 7.3915C3.06863 7.757 2.75498 8.1414 2.46411 8.5428C1.05415 10.8154 0.228157 13.4014 0.0597057 16.0705L2.16451 16.181C2.31587 13.9743 2.97552 11.8325 4.09191 9.923ZM11.326 25.5167C10.2182 23.2796 8.95782 21.1213 7.55381 19.0572C7.21626 18.6668 6.75888 18.3991 6.25313 18.2961C5.74739 18.1931 5.22177 18.2606 4.75841 18.4879C4.63092 18.5804 4.51015 18.6819 4.39701 18.7915C3.74611 19.5585 3.84181 20.4585 4.45301 21.7015C5.19701 23.2141 8.9269 31.2207 10.7761 33.7853C11.6937 35.0576 12.4252 35.7891 13.5661 35.6899C13.925 35.6598 14.2626 35.5071 14.5223 35.2575C14.8794 34.7845 15.0681 34.2057 15.0582 33.6131C14.9688 32.745 14.6803 31.9091 14.2151 31.1707C14.0908 30.9224 11.7971 26.4838 11.326 25.5167ZM10.141 34.4067C8.29181 31.8423 4.56171 23.8357 3.81781 22.3231C3.41734 21.675 3.25864 20.9062 3.36971 20.1525C3.11101 20.0095 2.83814 19.8939 2.55551 19.8074C2.19666 19.7199 1.81956 19.745 1.47551 19.8794C1.58721 19.7031 1.64079 19.4962 1.62871 19.2879C1.62871 18.5142 1.63171 17.8426 1.63171 17.8426C1.63171 17.8426 1.76491 17.8457 1.91661 17.855C2.06831 17.8643 2.10871 17.8204 2.12391 17.635C2.13451 17.505 2.13271 17.297 2.13561 17.0221L0.0116057 16.9105C0.00720569 17.0295 0.00300569 17.1485 0.000805692 17.2698C-0.00109431 17.3698 0.000805692 17.4575 0.00200569 17.5305C0.00540569 17.6961 0.0520057 17.7589 0.183506 17.765C0.381506 17.7743 0.414106 17.7769 0.414106 17.7769C0.414106 17.7769 0.396806 18.5947 0.396806 19.3096C0.396806 20.0245 0.864206 20.1235 1.01741 20.1235C1.02741 20.1235 1.04261 20.1219 1.05651 20.1208C0.912061 20.2205 0.788085 20.3469 0.691306 20.4933C0.472802 20.8709 0.344498 21.2939 0.316406 21.7293C0.241906 23.0682 1.89101 26.701 3.49041 29.6518C5.39431 33.1646 6.30471 34.6235 6.85041 35.4294C7.39611 36.2353 8.81801 38.1229 10.3467 37.8719C10.6316 37.816 10.8964 37.6848 11.1133 37.4918C11.3303 37.2988 11.4915 37.0512 11.5802 36.7747C11.6371 36.531 11.6757 36.2834 11.6958 36.034C11.0741 35.6009 10.5454 35.0475 10.141 34.4067ZM29.4843 21.7012C30.0955 20.4585 30.1912 19.5585 29.5403 18.7912C29.4271 18.6816 29.3063 18.5802 29.1789 18.4876C28.7155 18.2603 28.1899 18.1928 27.6841 18.2958C27.1783 18.3988 26.7209 18.6664 26.3833 19.0569C24.9794 21.1211 23.7191 23.2793 22.6112 25.5164C22.14 26.4835 19.8463 30.9221 19.7224 31.17C19.2573 31.9085 18.9688 32.7443 18.8793 33.6125C18.8694 34.2051 19.0581 34.784 19.4154 35.2569C19.675 35.5066 20.0126 35.6593 20.3715 35.6893C21.5123 35.7885 22.2436 35.0571 23.1615 33.7847C25.0103 31.2204 28.7404 23.2138 29.4843 21.7012Z" fill="#1D1D1F"/>
</svg>
