<svg width="31" height="33" viewBox="0 0 31 33" fill="none" xmlns="http://www.w3.org/2000/svg">
<path d="M6.81973 0.00525921C4.07893 0.105259 2.18623 1.87176 0.566932 3.59626C-0.157168 4.36736 0.0188318 4.93626 0.0188318 6.54146C0.0188318 8.71416 -0.0283681 8.97486 0.592032 9.91036C1.24771 10.984 2.16029 11.8777 3.24749 12.5107C4.33468 13.1437 5.56232 13.4962 6.81973 13.5364C10.9925 13.8581 14.5938 10.5154 14.5938 6.77886C14.5938 3.04236 11.0017 -0.147341 6.81973 0.00525921ZM3.02173 8.83966C3.02173 9.02186 2.94935 9.1966 2.82051 9.32544C2.69168 9.45428 2.51694 9.52666 2.33473 9.52666C2.15253 9.52666 1.97779 9.45428 1.84895 9.32544C1.72011 9.1966 1.64773 9.02186 1.64773 8.83966V4.80186C1.64773 4.61966 1.72011 4.44491 1.84895 4.31608C1.97779 4.18724 2.15253 4.11486 2.33473 4.11486C2.51694 4.11486 2.69168 4.18724 2.82051 4.31608C2.94935 4.44491 3.02173 4.61966 3.02173 4.80186V8.83966ZM11.0052 6.81506C11.0044 7.08997 10.8948 7.35339 10.7005 7.54778C10.5061 7.74217 10.2426 7.85174 9.96773 7.85256H7.72403C7.44909 7.85187 7.18561 7.74234 6.9912 7.54792C6.7968 7.3535 6.68729 7.09 6.68663 6.81506V6.68626C6.68732 6.41133 6.79684 6.14787 6.99124 5.95346C7.18564 5.75906 7.44911 5.64955 7.72403 5.64886H9.96723C10.2422 5.64952 10.5057 5.75903 10.7001 5.95343C10.8945 6.14784 11.004 6.41132 11.0047 6.68626L11.0052 6.81506ZM7.23173 14.9415C9.0819 15.0823 10.9235 14.576 12.4417 13.5093V30.4934C12.3701 30.9641 12.1428 31.3972 11.7962 31.7237C11.4495 32.0501 11.0035 32.2509 10.5293 32.2942H8.75933C8.36702 32.2489 8.00185 32.0713 7.72412 31.7906C7.44639 31.5098 7.27271 31.1427 7.23173 30.75C7.23173 30.75 7.24493 14.9548 7.23173 14.9415ZM16.3455 6.77886C16.3455 10.5154 19.9468 13.8581 24.1196 13.5364C25.377 13.4962 26.6047 13.1437 27.6919 12.5107C28.7791 11.8777 29.6917 10.984 30.3473 9.91036C30.9673 8.97486 30.9205 8.71416 30.9205 6.54146C30.9205 4.93606 31.0965 4.36736 30.3724 3.59626C28.7531 1.87176 26.8604 0.105259 24.1196 0.00525921C19.9371 -0.147341 16.3455 3.04236 16.3455 6.77886ZM27.6736 4.80186C27.6736 4.61966 27.746 4.44491 27.8748 4.31608C28.0037 4.18724 28.1784 4.11486 28.3606 4.11486C28.5428 4.11486 28.7176 4.18724 28.8464 4.31608C28.9753 4.44491 29.0476 4.61966 29.0476 4.80186V8.83966C29.0476 9.02186 28.9753 9.1966 28.8464 9.32544C28.7176 9.45428 28.5428 9.52666 28.3606 9.52666C28.1784 9.52666 28.0037 9.45428 27.8748 9.32544C27.746 9.1966 27.6736 9.02186 27.6736 8.83966V4.80186ZM19.9346 6.68626C19.9353 6.41139 20.0448 6.14796 20.2391 5.95357C20.4335 5.75918 20.6969 5.64963 20.9717 5.64886H23.2149C23.4899 5.64955 23.7533 5.75906 23.9477 5.95346C24.1421 6.14787 24.2516 6.41133 24.2523 6.68626V6.81506C24.2517 7.09 24.1422 7.3535 23.9478 7.54792C23.7534 7.74234 23.4899 7.85187 23.2149 7.85256H20.9717C20.6968 7.85174 20.4334 7.74217 20.239 7.54778C20.0446 7.35339 19.9351 7.08997 19.9342 6.81506L19.9346 6.68626ZM23.5946 30.75C23.5946 31.4633 22.534 32.2942 21.8075 32.2942H20.0375C19.5983 32.2387 19.1943 32.0255 18.9007 31.6941C18.6071 31.3628 18.4439 30.936 18.4417 30.4934V13.5093C19.9386 14.5753 21.7621 15.0821 23.5943 14.9415C23.5909 14.9598 23.5946 30.75 23.5946 30.75Z" fill="#1D1D1F"/>
</svg>
