<svg width="45" height="37" viewBox="0 0 45 37" fill="none" xmlns="http://www.w3.org/2000/svg">
<path d="M14.5 0H5.5C4.04185 0.00174664 2.64391 0.58177 1.61284 1.61284C0.58177 2.64391 0.00174664 4.04185 0 5.5L0 31.5C0.00182586 32.9581 0.581875 34.356 1.61293 35.3871C2.64398 36.4181 4.04187 36.9982 5.5 37H14.5C15.9581 36.9982 17.356 36.4181 18.3871 35.3871C19.4181 34.356 19.9982 32.9581 20 31.5V5.5C19.9983 4.04185 19.4182 2.64391 18.3872 1.61284C17.3561 0.58177 15.9582 0.00174664 14.5 0ZM18 31.5C17.9989 32.4279 17.6298 33.3175 16.9736 33.9736C16.3175 34.6298 15.4279 34.9989 14.5 35H5.5C4.57208 34.9989 3.68249 34.6298 3.02635 33.9736C2.37022 33.3175 2.00111 32.4279 2 31.5V5.5C2.00111 4.57208 2.37022 3.68249 3.02635 3.02635C3.68249 2.37022 4.57208 2.00111 5.5 2H14.5C15.4279 2.00111 16.3175 2.37022 16.9736 3.02635C17.6298 3.68249 17.9989 4.57208 18 5.5V31.5ZM44 23.5H45V29.5H44V23.5ZM32 0H38V1H32V0ZM44 15.5H45V21.5H44V15.5ZM32 36H38V37H32V36ZM26 21.5H25V15.5H26V21.5ZM26 13.5H25V7.5H26V13.5ZM26 29.5H25V23.5H26V29.5ZM40 1.05V0.0253C41.3655 0.151233 42.6349 0.782244 43.5597 1.79483C44.4845 2.80741 44.9981 4.12867 45 5.5H44C43.9979 4.39596 43.5887 3.33148 42.8506 2.5104C42.1126 1.68931 41.0976 1.16932 40 1.05ZM44 31.5H45C44.9981 32.8713 44.4845 34.1926 43.5597 35.2052C42.6349 36.2178 41.3655 36.8488 40 36.9747V35.95C41.0976 35.8307 42.1126 35.3107 42.8506 34.4896C43.5887 33.6685 43.9979 32.604 44 31.5ZM30 0.0253V1.05C28.9024 1.16932 27.8874 1.68931 27.1494 2.5104C26.4113 3.33148 26.0021 4.39596 26 5.5H25C25.0019 4.12867 25.5155 2.80741 26.4403 1.79483C27.3651 0.782244 28.6345 0.151233 30 0.0253ZM30 35.95V36.9751C28.6344 36.8492 27.365 36.2181 26.4402 35.2054C25.5154 34.1928 25.0018 32.8714 25 31.5H26C26.0021 32.604 26.4113 33.6685 27.1494 34.4896C27.8874 35.3107 28.9024 35.8307 30 35.95ZM44 7.5H45V13.5H44V7.5Z" fill="#1D1D1F"/>
</svg>
